<svg xmlns="http://www.w3.org/2000/svg" width="643" height="165" viewBox="0 0 643 165">
  <g fill="none" fill-rule="evenodd">
    <g transform="translate(27 9)">
      <circle cx="59" cy="59" r="59" fill="#61AEFF"/>
      <path fill="#FFF" fill-rule="nonzero" d="M61.7258883,70.3045685 C61.7258883,72.8899905 63.8929251,75 66.5482234,75 C69.2035216,75 71.3705584,72.8899905 71.3705584,70.3045685 C71.3705584,67.7191466 66.5482234,60.9137056 66.5482234,60.9137056 C66.5482234,60.9137056 61.7258883,67.7220812 61.7258883,70.3045685 Z M52.25,28.2934048 L46.5292187,28.2934048 C44.1898438,26.3210145 41.2507812,24.9184258 38,24.2025212 L38,17.2626295 L33.25,16.751269 L28.5,17.2626295 L28.5,24.2025212 C25.2492188,24.9330361 22.3101563,26.3356248 19.9648438,28.2934048 L2.375,28.2934048 C1.05761719,28.2934048 0,29.3307359 0,30.6310525 L0,44.656939 C0,45.9572555 1.05761719,46.9945867 2.375,46.9945867 L16.1470313,46.9945867 C19.2078125,52.5172795 25.6796875,56.3451777 33.25,56.3451777 C40.8203125,56.3451777 47.2907031,52.5099743 50.35,46.9945867 L52.25,46.9945867 C54.8654687,46.9945867 57,49.0823983 57,51.6567329 C57,54.2310675 59.1375,56.3451777 61.75,56.3451777 L71.25,56.3451777 C73.8654688,56.3451777 76,54.2442168 76,51.6698822 C76,38.7543784 65.371875,28.2934048 52.25,28.2934048 Z M12.2589664,14.0735435 L33.3705584,11.8718002 L54.486599,14.0735435 C55.8953236,14.2203264 57.0964467,13.0812912 57.0964467,11.6134623 L57.0964467,7.1762155 C57.0964467,5.7083866 55.8916164,4.57228703 54.4836332,4.71906992 L38.115736,6.42175144 L38.115736,2.34852624 C38.115736,1.04582809 37.0628997,0 35.7431472,0 L30.9979695,0 C29.678217,0 28.6253807,1.04582809 28.6253807,2.34852624 L28.6253807,6.42175144 L12.2589664,4.71760209 C10.8502418,4.5708192 9.64467005,5.7083866 9.64467005,7.1762155 L9.64467005,11.6134623 C9.64467005,13.0812912 10.8502418,14.2203264 12.2589664,14.0735435 Z" transform="translate(21 26)"/>
      <g fill="#61AEFF" transform="translate(39 113)">
        <path d="M-1.79505533e-14,1.27659574 C7.13262285,4.73503933 11.875019,7.64284075 14.2271883,10 C16.5793577,12.3571592 18.4895155,15.6904926 19.9576618,20 L19.9576618,0 L-1.79505533e-14,1.27659574 Z"/>
        <path d="M19.7894737,1.27659574 C26.9220965,4.73503933 31.6644926,7.64284075 34.016662,10 C36.3688313,12.3571592 38.2789892,15.6904926 39.7471355,20 L39.7471355,2.41886889e-14 L19.7894737,1.27659574 Z" transform="matrix(-1 0 0 1 59.537 0)"/>
      </g>
      <circle cx="58.5" cy="143.5" r="4.5" fill="#61AEFF"/>
    </g>
    <text fill="#ECF0FF" font-family="ABeeZee-Regular, ABeeZee" font-size="60" letter-spacing=".684">
      <tspan x="174.343" y="102">Fountain finder</tspan>
    </text>
  </g>
</svg>
