<svg xmlns="http://www.w3.org/2000/svg" width="643" height="165" viewBox="0 0 643 165"><g fill="none" fill-rule="evenodd"><g transform="translate(27 9)"><circle cx="59" cy="59" r="59" fill="#61AEFF"/><path fill="#FFF" fill-rule="nonzero" d="M82.726 96.305c0 2.585 2.167 4.695 4.822 4.695 2.656 0 4.823-2.11 4.823-4.695 0-2.586-4.823-9.391-4.823-9.391s-4.822 6.808-4.822 9.39ZM73.25 54.293h-5.72c-2.34-1.972-5.28-3.375-8.53-4.09v-6.94l-4.75-.512-4.75.512v6.94c-3.25.73-6.19 2.133-8.535 4.09h-17.59c-1.317 0-2.375 1.038-2.375 2.338v14.026c0 1.3 1.058 2.338 2.375 2.338h13.772c3.06 5.522 9.533 9.35 17.103 9.35 7.57 0 14.04-3.835 17.1-9.35h1.9c2.615 0 4.75 2.087 4.75 4.662 0 2.574 2.138 4.688 4.75 4.688h9.5c2.615 0 4.75-2.1 4.75-4.675 0-12.916-10.628-23.377-23.75-23.377Zm-39.991-14.22 21.112-2.201 21.116 2.202c1.408.146 2.61-.993 2.61-2.46v-4.438c0-1.468-1.205-2.604-2.613-2.457l-16.368 1.703v-4.073A2.351 2.351 0 0 0 56.743 26h-4.745a2.351 2.351 0 0 0-2.373 2.349v4.073L33.26 30.718c-1.409-.147-2.614.99-2.614 2.458v4.437c0 1.468 1.205 2.607 2.614 2.46Z"/><g fill="#61AEFF"><path d="M39 114.277c7.133 3.458 11.875 6.366 14.227 8.723 2.352 2.357 4.263 5.69 5.73 10v-20L39 114.277Z"/><path d="M78.748 114.277c-7.133 3.458-11.875 6.366-14.228 8.723-2.352 2.357-4.262 5.69-5.73 10v-20l19.958 1.277Z"/></g><circle cx="58.5" cy="143.5" r="4.5" fill="#61AEFF"/></g><path fill="#0C1A4E" fill-rule="nonzero" d="M185.443 102V82.44h16.02v-4.68h-16.02V64.92h19.2V60h-24.9v42h5.7Zm36.624.72c2.2 0 4.25-.39 6.15-1.17 1.9-.78 3.55-1.89 4.95-3.33 1.4-1.44 2.49-3.17 3.27-5.19.78-2.02 1.17-4.27 1.17-6.75 0-2.48-.4-4.72-1.2-6.72-.8-2-1.9-3.7-3.3-5.1-1.4-1.4-3.05-2.48-4.95-3.24-1.9-.76-3.93-1.14-6.09-1.14-2.2 0-4.25.38-6.15 1.14-1.9.76-3.54 1.84-4.92 3.24-1.38 1.4-2.47 3.11-3.27 5.13-.8 2.02-1.2 4.29-1.2 6.81 0 2.4.39 4.6 1.17 6.6.78 2 1.86 3.72 3.24 5.16 1.38 1.44 3.02 2.56 4.92 3.36 1.9.8 3.97 1.2 6.21 1.2Zm0-4.8c-1.44 0-2.77-.31-3.99-.93-1.22-.62-2.28-1.46-3.18-2.52-.9-1.06-1.6-2.3-2.1-3.72-.5-1.42-.75-2.91-.75-4.47 0-3.44.88-6.2 2.64-8.28 1.76-2.08 4.22-3.12 7.38-3.12 1.44 0 2.77.31 3.99.93 1.22.62 2.28 1.45 3.18 2.49.9 1.04 1.6 2.26 2.1 3.66.5 1.4.75 2.88.75 4.44 0 1.72-.23 3.28-.69 4.68-.46 1.4-1.12 2.61-1.98 3.63a8.802 8.802 0 0 1-3.15 2.37c-1.24.56-2.64.84-4.2.84Zm33.623 4.8c2.16 0 4.15-.45 5.97-1.35 1.82-.9 3.43-2.07 4.83-3.51.44 1.44 1.22 2.54 2.34 3.3 1.12.76 2.64 1.14 4.56 1.14l1.14-4.2c-.44 0-.88-.06-1.32-.18-.44-.12-.82-.33-1.14-.63-.32-.3-.58-.72-.78-1.26-.2-.54-.3-1.25-.3-2.13V70.8h-5.4v23.46c-1.2 1.12-2.56 2.01-4.08 2.67-1.52.66-3.12.99-4.8.99-2.04 0-3.57-.65-4.59-1.95-1.02-1.3-1.53-3.17-1.53-5.61V70.8h-5.4v20.28c0 2.12.29 3.92.87 5.4.58 1.48 1.36 2.68 2.34 3.6.98.92 2.1 1.59 3.36 2.01 1.26.42 2.57.63 3.93.63Zm32.124-.72V81.36c.56-.88 1.19-1.72 1.89-2.52s1.46-1.5 2.28-2.1c.82-.6 1.67-1.07 2.55-1.41.88-.34 1.78-.51 2.7-.51 1.92 0 3.4.67 4.44 2.01 1.04 1.34 1.56 3.15 1.56 5.43V102h5.4V81.66c0-3.48-.87-6.28-2.61-8.4-1.74-2.12-4.37-3.18-7.89-3.18-2.4 0-4.47.57-6.21 1.71a14.91 14.91 0 0 0-4.29 4.23V70.8h-5.22V102h5.4Zm41.724.72c1.48 0 2.9-.23 4.26-.69 1.36-.46 2.44-.93 3.24-1.41l-1.5-4.32c-.8.44-1.64.82-2.52 1.14-.88.32-1.82.48-2.82.48-.68 0-1.33-.11-1.95-.33-.62-.22-1.15-.57-1.59-1.05-.44-.48-.79-1.12-1.05-1.92-.26-.8-.39-1.78-.39-2.94V76.62h8.64v-4.68h-8.64V62.1h-4.14l-1.14 9.84h-5.52v4.68h5.4v14.64c0 3.72.87 6.56 2.61 8.52 1.74 1.96 4.11 2.94 7.11 2.94Zm24.323 0c1.2 0 2.3-.14 3.3-.42 1-.28 1.9-.66 2.7-1.14.8-.48 1.51-1.03 2.13-1.65.62-.62 1.17-1.25 1.65-1.89.8 3.12 3.12 4.68 6.96 4.68l1.14-4.2c-.88 0-1.69-.23-2.43-.69-.74-.46-1.11-1.45-1.11-2.97V70.8h-4.92v2.52c-1.08-.92-2.35-1.69-3.81-2.31-1.46-.62-3.09-.93-4.89-.93-2.16 0-4.15.42-5.97 1.26-1.82.84-3.38 2-4.68 3.48-1.3 1.48-2.31 3.23-3.03 5.25-.72 2.02-1.08 4.19-1.08 6.51 0 2.48.37 4.71 1.11 6.69.74 1.98 1.74 3.67 3 5.07 1.26 1.4 2.74 2.48 4.44 3.24 1.7.76 3.53 1.14 5.49 1.14Zm1.2-4.8c-1.4 0-2.69-.28-3.87-.84a9.334 9.334 0 0 1-3.09-2.37c-.88-1.02-1.56-2.24-2.04-3.66s-.72-2.97-.72-4.65c0-1.72.24-3.3.72-4.74.48-1.44 1.15-2.67 2.01-3.69a8.946 8.946 0 0 1 3.09-2.37c1.2-.56 2.52-.84 3.96-.84s2.81.23 4.11.69c1.3.46 2.49 1.07 3.57 1.83v16.74a10.69 10.69 0 0 1-3.42 2.82c-1.36.72-2.8 1.08-4.32 1.08Zm27.264-32.46c1.16 0 2.08-.34 2.76-1.02.68-.68 1.02-1.6 1.02-2.76 0-1.04-.37-1.93-1.11-2.67-.74-.74-1.63-1.11-2.67-1.11-1.16 0-2.08.34-2.76 1.02-.68.68-1.02 1.6-1.02 2.76 0 1.04.37 1.93 1.11 2.67.74.74 1.63 1.11 2.67 1.11Zm2.7 36.54V70.8h-5.4V102h5.4Zm15.683 0V81.36c.56-.88 1.19-1.72 1.89-2.52s1.46-1.5 2.28-2.1c.82-.6 1.67-1.07 2.55-1.41.88-.34 1.78-.51 2.7-.51 1.92 0 3.4.67 4.44 2.01 1.04 1.34 1.56 3.15 1.56 5.43V102h5.4V81.66c0-3.48-.87-6.28-2.61-8.4-1.74-2.12-4.37-3.18-7.89-3.18-2.4 0-4.47.57-6.21 1.71a14.91 14.91 0 0 0-4.29 4.23V70.8h-5.22V102h5.4Zm55.487 0V76.62h9.24v-4.68h-9.24v-4.02c0-2.04.51-3.59 1.53-4.65 1.02-1.06 2.37-1.59 4.05-1.59 1.16 0 2.22.18 3.18.54.96.36 1.86.76 2.7 1.2l1.62-4.56c-1.12-.56-2.29-1.03-3.51-1.41-1.22-.38-2.67-.57-4.35-.57-1.56 0-3 .26-4.32.78-1.32.52-2.44 1.28-3.36 2.28-.92 1-1.64 2.2-2.16 3.6-.52 1.4-.78 2.98-.78 4.74v3.66h-4.8v4.68h4.8V102h5.4Zm18.264-36.54c1.16 0 2.08-.34 2.76-1.02.68-.68 1.02-1.6 1.02-2.76 0-1.04-.37-1.93-1.11-2.67-.74-.74-1.63-1.11-2.67-1.11-1.16 0-2.08.34-2.76 1.02-.68.68-1.02 1.6-1.02 2.76 0 1.04.37 1.93 1.11 2.67.74.74 1.63 1.11 2.67 1.11Zm2.7 36.54V70.8h-5.4V102h5.4Zm15.683 0V81.36c.56-.88 1.19-1.72 1.89-2.52s1.46-1.5 2.28-2.1c.82-.6 1.67-1.07 2.55-1.41.88-.34 1.78-.51 2.7-.51 1.92 0 3.4.67 4.44 2.01 1.04 1.34 1.56 3.15 1.56 5.43V102h5.4V81.66c0-3.48-.87-6.28-2.61-8.4-1.74-2.12-4.37-3.18-7.89-3.18-2.4 0-4.47.57-6.21 1.71a14.91 14.91 0 0 0-4.29 4.23V70.8h-5.22V102h5.4Zm42.624.72c2.4 0 4.38-.51 5.94-1.53 1.56-1.02 2.8-2.17 3.72-3.45.84 3.04 3.16 4.56 6.96 4.56l1.14-4.2c-.88 0-1.69-.23-2.43-.69-.74-.46-1.11-1.45-1.11-2.97V57.6h-5.4v16.32c-.84-.88-2.01-1.74-3.51-2.58-1.5-.84-3.29-1.26-5.37-1.26-1.88 0-3.66.42-5.34 1.26-1.68.84-3.15 1.99-4.41 3.45-1.26 1.46-2.26 3.2-3 5.22-.74 2.02-1.11 4.21-1.11 6.57 0 2.48.36 4.71 1.08 6.69.72 1.98 1.71 3.67 2.97 5.07a13.153 13.153 0 0 0 9.87 4.38Zm1.2-4.8a8.52 8.52 0 0 1-3.81-.87 9.374 9.374 0 0 1-3.06-2.4c-.86-1.02-1.53-2.23-2.01-3.63-.48-1.4-.72-2.94-.72-4.62 0-1.64.22-3.17.66-4.59.44-1.42 1.08-2.65 1.92-3.69a9.238 9.238 0 0 1 3.03-2.46c1.18-.6 2.49-.9 3.93-.9 1.68 0 3.19.41 4.53 1.23 1.34.82 2.39 1.71 3.15 2.67v15.48c-.92 1.12-2.05 2.03-3.39 2.73-1.34.7-2.75 1.05-4.23 1.05Zm36.324 4.8c2.24 0 4.26-.2 6.06-.6 1.8-.4 3.42-.94 4.86-1.62l-1.26-4.62c-1.32.6-2.7 1.09-4.14 1.47-1.44.38-3.06.57-4.86.57-2.76 0-4.98-.82-6.66-2.46-1.68-1.64-2.7-3.92-3.06-6.84h21.84c.12-1.32.18-2.68.18-4.08 0-1.96-.28-3.82-.84-5.58-.56-1.76-1.4-3.3-2.52-4.62-1.12-1.32-2.52-2.36-4.2-3.12-1.68-.76-3.64-1.14-5.88-1.14-2.12 0-4.04.41-5.76 1.23-1.72.82-3.2 1.96-4.44 3.42-1.24 1.46-2.2 3.19-2.88 5.19-.68 2-1.02 4.16-1.02 6.48 0 2.6.34 4.91 1.02 6.93.68 2.02 1.65 3.72 2.91 5.1 1.26 1.38 2.79 2.44 4.59 3.18 1.8.74 3.82 1.11 6.06 1.11Zm7.98-18.48h-17.1c.32-3.12 1.23-5.48 2.73-7.08 1.5-1.6 3.43-2.4 5.79-2.4 2.68 0 4.78.82 6.3 2.46 1.52 1.64 2.28 3.98 2.28 7.02ZM599.233 102V87.42c0-2.04.25-3.81.75-5.31.5-1.5 1.16-2.73 1.98-3.69.82-.96 1.76-1.68 2.82-2.16 1.06-.48 2.15-.72 3.27-.72 1.04 0 1.94.16 2.7.48l1.62-5.58c-.44-.12-.95-.21-1.53-.27-.58-.06-1.17-.09-1.77-.09-1.32 0-2.52.21-3.6.63-1.08.42-2.03.97-2.85 1.65-.82.68-1.53 1.48-2.13 2.4-.6.92-1.08 1.86-1.44 2.82V70.8h-5.22V102h5.4Z"/></g></svg>