<svg xmlns="http://www.w3.org/2000/svg" width="278" height="278"><g fill="none" fill-rule="evenodd"><circle cx="139" cy="139" r="139" fill="#61AEFF"/><path fill="#FFF" fill-rule="nonzero" d="M195 227c0 6 5 11 11 11s11-5 11-11-11-22-11-22-11 16-11 22Zm-23-100h-13c-6-5-12-8-20-10v-16l-11-1-11 1v16c-8 2-15 6-20 10H56c-4 0-6 3-6 6v33c0 3 2 6 6 6h32c7 13 22 22 40 22s33-9 40-22h4c7 0 12 4 12 11 0 6 5 11 11 11h22c6 0 11-5 11-11 0-31-25-56-56-56ZM79 93l49-5 50 5c3 1 6-2 6-5V77c0-3-3-6-6-6l-39 4v-9c0-4-2-6-5-6h-11c-3 0-6 2-6 6v9l-38-4c-4 0-6 3-6 6v11c0 3 2 6 6 5Z"/></g></svg>