<svg xmlns="http://www.w3.org/2000/svg" width="933.333" height="933.333" version="1.0" viewBox="0 0 700 700"><path d="M328 .6c-1.9.2-8.4.9-14.5 1.4C249.6 8.2 187.1 33.5 134 74.6c-14.9 11.5-48.1 44.6-59.5 59.4-41 53.2-65.3 113.2-72.7 179.5-1.7 15.5-1.7 57.5 0 73 7.5 67.3 33.2 130 74.8 182 11.4 14.3 33.9 37.2 48.4 49.4 53.7 45.1 116.3 71.7 188.5 80.3 14.2 1.7 58.6 1.7 73 0 68.2-7.9 126.8-31.8 180.2-73.4 13.8-10.7 38.9-35.1 51.2-49.8 45.1-53.8 71.7-116.2 80.3-188.5 1.6-13.9 1.6-59.5 0-73-7.7-62.9-27.5-115.8-62-164.9-23.4-33.3-57.7-66.8-91.7-89.6-46-30.8-96.8-49.5-153.5-56.6C379.3.9 335.8-.3 328 .6zm14.9 151.7c1.3.6 3.4 2.5 4.5 4 1.9 2.5 2.1 4.5 2.4 17.8l.3 15 2.7-.5c1.5-.2 24-2.6 50-5.2l47.4-4.8 4.1 2.2c7.8 4.2 8.2 5.3 8.5 26.2.3 20.8-.3 23.2-6.9 26.2-3.2 1.5-5.7 1.4-35.4-1.7-17.6-1.8-46.8-4.8-65-6.6l-33-3.3-52 5.3c-28.6 2.8-57.6 5.8-64.4 6.6-14.4 1.7-17.8.9-20.5-5-2.2-4.5-2.3-37.2-.2-41.3 2.4-4.7 6.2-7.4 10.8-7.9 2.4-.2 23.9 1.6 47.8 4.1 23.9 2.6 45.1 4.7 47 4.9l3.5.2.5-14.7c.5-13.9.6-14.8 3-17.3 4.4-4.8 7.1-5.4 25.5-5.4 11.6-.1 17.8.3 19.4 1.2zm.9 101.3 6.2.7v40.3l7.9 2.3c10.6 3.1 26 10.6 35.3 17.3l7.6 5.6 26.4.5c28.7.5 33.3 1.2 51.5 7.2 38.4 12.8 70.5 43.4 85.4 81.2 6.4 16.6 9.2 30.2 9.3 46.3.1 13.3.1 13.6-3 19-2.2 3.8-4.8 6.7-8.8 9.5l-5.8 4-35.3.3c-34.4.3-35.6.2-40.4-1.9-5.7-2.4-12.3-8.9-14.6-14.5-.8-2-1.9-7.4-2.5-12-1-9.4-3.4-14.9-8.2-18.9-5.8-4.9-11.4-6.8-21.8-7.3l-9.6-.4-4.3 6.7c-15.6 24.1-43.4 41.5-74.8 47-18.7 3.3-44.9 1.4-62.2-4.5-23.3-7.8-44.6-23.8-56.1-41.8l-4.5-7.1-42.6-.1h-42.6l-3.4-2.3c-7-4.6-6.9-4-6.9-54.2s-.1-49.6 6.9-54.2l3.4-2.3h107.9l3.7-2.9c9.8-7.7 24.9-15.5 38.6-20l8-2.6.3-20.2.2-20.1 10.3-1c10.2-1 26.6-.9 38.5.4zm182.4 274.1c18.5 30.1 22.3 41.5 18.2 53.6-1.9 5.5-8.2 12.4-13.9 15.2-6.2 3-16 3.2-22.3.5-10.6-4.6-18.1-16.6-16.9-27.1.7-6.1 5.2-16.7 12-28.9 6.7-11.8 14.6-24 15.5-24 .4 0 3.7 4.8 7.4 10.7z"/></svg>